<?xml version="1.0" standalone="no"?>
<!DOCTYPE svg PUBLIC "-//W3C//DTD SVG 20010904//EN"
 "http://www.w3.org/TR/2001/REC-SVG-20010904/DTD/svg10.dtd">
<svg version="1.0" xmlns="http://www.w3.org/2000/svg"
 width="200.000000pt" height="200.000000pt" viewBox="0 0 200.000000 200.000000"
 preserveAspectRatio="xMidYMid meet">
<metadata>
Created by potrace 1.14, written by Peter Selinger 2001-2017
</metadata>
<g transform="translate(0.000000,200.000000) scale(0.100000,-0.100000)"
fill="#000000" stroke="none">
<path d="M485 1948 c-35 -19 -45 -40 -45 -95 l0 -53 -63 0 c-63 0 -139 -20
-187 -48 -39 -24 -97 -90 -122 -140 l-23 -47 0 -645 0 -645 25 -50 c30 -62 93
-125 156 -156 l49 -24 710 -2 c773 -2 749 -4 837 54 45 31 98 100 121 162 15
40 17 109 17 656 0 540 -2 618 -17 661 -45 136 -148 212 -300 222 l-83 5 0 54
c0 46 -4 58 -26 78 -31 29 -53 31 -93 10 -35 -17 -41 -32 -41 -96 l0 -49 -160
0 -160 0 0 55 c0 48 -4 60 -26 80 -31 29 -53 31 -93 10 -35 -17 -41 -32 -41
-96 l0 -49 -160 0 -160 0 0 55 c0 48 -4 60 -26 80 -29 27 -57 31 -89 13z m-45
-361 c0 -62 18 -93 60 -102 63 -14 100 26 100 110 l0 45 159 0 159 0 4 -60 c5
-69 19 -88 69 -96 27 -5 40 -1 62 20 23 21 27 33 27 81 l0 55 159 0 159 0 4
-60 c5 -69 19 -88 69 -96 27 -5 40 -1 62 20 23 22 27 33 27 82 l0 57 71 -5
c75 -6 105 -21 143 -72 17 -22 21 -46 24 -137 l4 -109 -801 0 -801 0 0 94 c0
102 9 137 43 175 32 35 75 50 140 51 l57 0 0 -53z m1358 -855 l-3 -429 -27
-35 c-55 -72 -18 -69 -782 -66 -674 3 -685 3 -712 24 -15 11 -37 33 -48 48
-20 27 -21 41 -24 457 l-3 429 801 0 801 0 -3 -428z"/>
<path d="M970 993 c-38 -14 -50 -46 -50 -140 l0 -93 -95 0 c-92 0 -97 -1 -121
-27 -21 -23 -25 -35 -20 -63 9 -58 34 -70 141 -70 l93 0 4 -100 c3 -111 11
-127 69 -136 27 -5 40 -1 62 20 26 24 27 29 27 121 l0 95 94 0 c85 0 95 2 120
25 35 32 35 78 0 110 -25 23 -35 25 -120 25 l-94 0 0 95 c0 91 -1 97 -26 120
-26 24 -52 30 -84 18z"/>
</g>
</svg>
